<mxfile host="app.diagrams.net" agent="Mozilla/5.0 (Windows NT 10.0; Win64; x64) AppleWebKit/537.36 (KHTML, like Gecko) Chrome/134.0.0.0 Safari/537.36 Edg/134.0.0.0" version="26.1.3">
  <diagram name="Page-1" id="ilaiIV-nOE-5OG5rMLVL">
    <mxGraphModel dx="1564" dy="349" grid="1" gridSize="10" guides="1" tooltips="1" connect="1" arrows="1" fold="1" page="1" pageScale="1" pageWidth="827" pageHeight="1169" math="0" shadow="0">
      <root>
        <mxCell id="0" />
        <mxCell id="1" parent="0" />
        <mxCell id="-_SdU4y-oUj2m8_1e3lg-1" value="Role" style="whiteSpace=wrap;html=1;align=center;" parent="1" vertex="1">
          <mxGeometry x="790" y="150" width="100" height="40" as="geometry" />
        </mxCell>
        <mxCell id="-_SdU4y-oUj2m8_1e3lg-2" value="Group" style="whiteSpace=wrap;html=1;align=center;" parent="1" vertex="1">
          <mxGeometry x="250" y="480" width="100" height="40" as="geometry" />
        </mxCell>
        <mxCell id="-_SdU4y-oUj2m8_1e3lg-3" value="Permission" style="whiteSpace=wrap;html=1;align=center;" parent="1" vertex="1">
          <mxGeometry x="890" y="480" width="100" height="40" as="geometry" />
        </mxCell>
        <mxCell id="-_SdU4y-oUj2m8_1e3lg-4" value="User" style="whiteSpace=wrap;html=1;align=center;" parent="1" vertex="1">
          <mxGeometry x="250" y="240" width="100" height="40" as="geometry" />
        </mxCell>
        <mxCell id="-_SdU4y-oUj2m8_1e3lg-8" value="" style="edgeStyle=orthogonalEdgeStyle;rounded=0;orthogonalLoop=1;jettySize=auto;html=1;entryX=1;entryY=0.25;entryDx=0;entryDy=0;" parent="1" source="-_SdU4y-oUj2m8_1e3lg-6" target="-_SdU4y-oUj2m8_1e3lg-4" edge="1">
          <mxGeometry relative="1" as="geometry" />
        </mxCell>
        <mxCell id="-_SdU4y-oUj2m8_1e3lg-9" value="" style="edgeStyle=orthogonalEdgeStyle;rounded=0;orthogonalLoop=1;jettySize=auto;html=1;" parent="1" source="-_SdU4y-oUj2m8_1e3lg-6" target="-_SdU4y-oUj2m8_1e3lg-1" edge="1">
          <mxGeometry relative="1" as="geometry" />
        </mxCell>
        <mxCell id="-_SdU4y-oUj2m8_1e3lg-6" value="Have" style="shape=rhombus;perimeter=rhombusPerimeter;whiteSpace=wrap;html=1;align=center;" parent="1" vertex="1">
          <mxGeometry x="400" y="140" width="120" height="60" as="geometry" />
        </mxCell>
        <mxCell id="-_SdU4y-oUj2m8_1e3lg-10" value="" style="edgeStyle=orthogonalEdgeStyle;rounded=0;orthogonalLoop=1;jettySize=auto;html=1;entryX=1;entryY=0.5;entryDx=0;entryDy=0;" parent="1" source="-_SdU4y-oUj2m8_1e3lg-7" target="-_SdU4y-oUj2m8_1e3lg-1" edge="1">
          <mxGeometry relative="1" as="geometry" />
        </mxCell>
        <mxCell id="-_SdU4y-oUj2m8_1e3lg-11" value="" style="edgeStyle=orthogonalEdgeStyle;rounded=0;orthogonalLoop=1;jettySize=auto;html=1;" parent="1" source="-_SdU4y-oUj2m8_1e3lg-7" target="-_SdU4y-oUj2m8_1e3lg-3" edge="1">
          <mxGeometry relative="1" as="geometry" />
        </mxCell>
        <mxCell id="-_SdU4y-oUj2m8_1e3lg-7" value="Have" style="shape=rhombus;perimeter=rhombusPerimeter;whiteSpace=wrap;html=1;align=center;" parent="1" vertex="1">
          <mxGeometry x="880" y="350" width="120" height="60" as="geometry" />
        </mxCell>
        <mxCell id="-_SdU4y-oUj2m8_1e3lg-13" value="" style="edgeStyle=orthogonalEdgeStyle;rounded=0;orthogonalLoop=1;jettySize=auto;html=1;entryX=0.5;entryY=1;entryDx=0;entryDy=0;" parent="1" source="-_SdU4y-oUj2m8_1e3lg-12" target="-_SdU4y-oUj2m8_1e3lg-4" edge="1">
          <mxGeometry relative="1" as="geometry" />
        </mxCell>
        <mxCell id="-_SdU4y-oUj2m8_1e3lg-14" value="" style="edgeStyle=orthogonalEdgeStyle;rounded=0;orthogonalLoop=1;jettySize=auto;html=1;" parent="1" source="-_SdU4y-oUj2m8_1e3lg-12" target="-_SdU4y-oUj2m8_1e3lg-2" edge="1">
          <mxGeometry relative="1" as="geometry" />
        </mxCell>
        <mxCell id="-_SdU4y-oUj2m8_1e3lg-12" value="Join" style="shape=rhombus;perimeter=rhombusPerimeter;whiteSpace=wrap;html=1;align=center;" parent="1" vertex="1">
          <mxGeometry x="240" y="350" width="120" height="60" as="geometry" />
        </mxCell>
        <mxCell id="-_SdU4y-oUj2m8_1e3lg-15" value="Bet" style="whiteSpace=wrap;html=1;align=center;" parent="1" vertex="1">
          <mxGeometry x="-70" y="480" width="100" height="40" as="geometry" />
        </mxCell>
        <mxCell id="-_SdU4y-oUj2m8_1e3lg-17" value="" style="edgeStyle=orthogonalEdgeStyle;rounded=0;orthogonalLoop=1;jettySize=auto;html=1;" parent="1" source="-_SdU4y-oUj2m8_1e3lg-16" target="-_SdU4y-oUj2m8_1e3lg-2" edge="1">
          <mxGeometry relative="1" as="geometry" />
        </mxCell>
        <mxCell id="-_SdU4y-oUj2m8_1e3lg-18" value="" style="edgeStyle=orthogonalEdgeStyle;rounded=0;orthogonalLoop=1;jettySize=auto;html=1;" parent="1" source="-_SdU4y-oUj2m8_1e3lg-16" target="-_SdU4y-oUj2m8_1e3lg-15" edge="1">
          <mxGeometry relative="1" as="geometry" />
        </mxCell>
        <mxCell id="-_SdU4y-oUj2m8_1e3lg-16" value="Have" style="shape=rhombus;perimeter=rhombusPerimeter;whiteSpace=wrap;html=1;align=center;" parent="1" vertex="1">
          <mxGeometry x="80" y="470" width="120" height="60" as="geometry" />
        </mxCell>
        <mxCell id="-_SdU4y-oUj2m8_1e3lg-27" value="" style="edgeStyle=orthogonalEdgeStyle;rounded=0;orthogonalLoop=1;jettySize=auto;html=1;entryX=0.25;entryY=1;entryDx=0;entryDy=0;" parent="1" source="-_SdU4y-oUj2m8_1e3lg-26" target="-_SdU4y-oUj2m8_1e3lg-15" edge="1">
          <mxGeometry relative="1" as="geometry" />
        </mxCell>
        <mxCell id="-_SdU4y-oUj2m8_1e3lg-28" value="" style="edgeStyle=orthogonalEdgeStyle;rounded=0;orthogonalLoop=1;jettySize=auto;html=1;entryX=0.5;entryY=0;entryDx=0;entryDy=0;" parent="1" source="-_SdU4y-oUj2m8_1e3lg-26" target="JdU3-zYYGuw5FkNvxXy6-35" edge="1">
          <mxGeometry relative="1" as="geometry">
            <mxPoint x="-20" y="719.9999999999998" as="targetPoint" />
          </mxGeometry>
        </mxCell>
        <mxCell id="-_SdU4y-oUj2m8_1e3lg-26" value="Have" style="shape=rhombus;perimeter=rhombusPerimeter;whiteSpace=wrap;html=1;align=center;" parent="1" vertex="1">
          <mxGeometry x="-170" y="590" width="120" height="60" as="geometry" />
        </mxCell>
        <mxCell id="-_SdU4y-oUj2m8_1e3lg-30" style="edgeStyle=orthogonalEdgeStyle;rounded=0;orthogonalLoop=1;jettySize=auto;html=1;entryX=0;entryY=0.25;entryDx=0;entryDy=0;exitX=0.5;exitY=1;exitDx=0;exitDy=0;" parent="1" source="-_SdU4y-oUj2m8_1e3lg-29" target="JdU3-zYYGuw5FkNvxXy6-35" edge="1">
          <mxGeometry relative="1" as="geometry">
            <mxPoint x="-70" y="729.9999999999998" as="targetPoint" />
          </mxGeometry>
        </mxCell>
        <mxCell id="-_SdU4y-oUj2m8_1e3lg-31" style="edgeStyle=orthogonalEdgeStyle;rounded=0;orthogonalLoop=1;jettySize=auto;html=1;entryX=0;entryY=0.25;entryDx=0;entryDy=0;exitX=0.5;exitY=0;exitDx=0;exitDy=0;" parent="1" source="-_SdU4y-oUj2m8_1e3lg-29" target="-_SdU4y-oUj2m8_1e3lg-4" edge="1">
          <mxGeometry relative="1" as="geometry" />
        </mxCell>
        <mxCell id="-_SdU4y-oUj2m8_1e3lg-29" value="Are" style="shape=rhombus;perimeter=rhombusPerimeter;whiteSpace=wrap;html=1;align=center;" parent="1" vertex="1">
          <mxGeometry x="-280" y="470" width="120" height="60" as="geometry" />
        </mxCell>
        <mxCell id="-_SdU4y-oUj2m8_1e3lg-35" style="edgeStyle=orthogonalEdgeStyle;rounded=0;orthogonalLoop=1;jettySize=auto;html=1;entryX=0.75;entryY=0;entryDx=0;entryDy=0;" parent="1" source="-_SdU4y-oUj2m8_1e3lg-32" target="-_SdU4y-oUj2m8_1e3lg-15" edge="1">
          <mxGeometry relative="1" as="geometry" />
        </mxCell>
        <mxCell id="-_SdU4y-oUj2m8_1e3lg-37" style="edgeStyle=orthogonalEdgeStyle;rounded=0;orthogonalLoop=1;jettySize=auto;html=1;entryX=0;entryY=0.75;entryDx=0;entryDy=0;exitX=0.5;exitY=0;exitDx=0;exitDy=0;" parent="1" source="-_SdU4y-oUj2m8_1e3lg-32" target="-_SdU4y-oUj2m8_1e3lg-4" edge="1">
          <mxGeometry relative="1" as="geometry" />
        </mxCell>
        <mxCell id="-_SdU4y-oUj2m8_1e3lg-32" value="Create" style="shape=rhombus;perimeter=rhombusPerimeter;whiteSpace=wrap;html=1;align=center;" parent="1" vertex="1">
          <mxGeometry y="350" width="120" height="60" as="geometry" />
        </mxCell>
        <mxCell id="-_SdU4y-oUj2m8_1e3lg-34" style="edgeStyle=orthogonalEdgeStyle;rounded=0;orthogonalLoop=1;jettySize=auto;html=1;entryX=0.25;entryY=0;entryDx=0;entryDy=0;" parent="1" source="-_SdU4y-oUj2m8_1e3lg-33" target="-_SdU4y-oUj2m8_1e3lg-15" edge="1">
          <mxGeometry relative="1" as="geometry" />
        </mxCell>
        <mxCell id="-_SdU4y-oUj2m8_1e3lg-36" style="edgeStyle=orthogonalEdgeStyle;rounded=0;orthogonalLoop=1;jettySize=auto;html=1;exitX=0.5;exitY=0;exitDx=0;exitDy=0;entryX=0;entryY=0.5;entryDx=0;entryDy=0;" parent="1" source="-_SdU4y-oUj2m8_1e3lg-33" target="-_SdU4y-oUj2m8_1e3lg-4" edge="1">
          <mxGeometry relative="1" as="geometry" />
        </mxCell>
        <mxCell id="-_SdU4y-oUj2m8_1e3lg-33" value="Participates" style="shape=rhombus;perimeter=rhombusPerimeter;whiteSpace=wrap;html=1;align=center;" parent="1" vertex="1">
          <mxGeometry x="-160" y="350" width="120" height="60" as="geometry" />
        </mxCell>
        <mxCell id="-_SdU4y-oUj2m8_1e3lg-38" value="Inventory" style="whiteSpace=wrap;html=1;align=center;" parent="1" vertex="1">
          <mxGeometry x="10" y="120" width="100" height="40" as="geometry" />
        </mxCell>
        <mxCell id="-_SdU4y-oUj2m8_1e3lg-40" value="" style="edgeStyle=orthogonalEdgeStyle;rounded=0;orthogonalLoop=1;jettySize=auto;html=1;entryX=0.5;entryY=0;entryDx=0;entryDy=0;exitX=1;exitY=0.5;exitDx=0;exitDy=0;" parent="1" source="-_SdU4y-oUj2m8_1e3lg-39" target="-_SdU4y-oUj2m8_1e3lg-4" edge="1">
          <mxGeometry relative="1" as="geometry">
            <mxPoint x="300" y="240" as="targetPoint" />
          </mxGeometry>
        </mxCell>
        <mxCell id="-_SdU4y-oUj2m8_1e3lg-43" style="edgeStyle=orthogonalEdgeStyle;rounded=0;orthogonalLoop=1;jettySize=auto;html=1;entryX=1;entryY=0.5;entryDx=0;entryDy=0;" parent="1" source="-_SdU4y-oUj2m8_1e3lg-39" target="-_SdU4y-oUj2m8_1e3lg-38" edge="1">
          <mxGeometry relative="1" as="geometry" />
        </mxCell>
        <mxCell id="-_SdU4y-oUj2m8_1e3lg-39" value="Have" style="shape=rhombus;perimeter=rhombusPerimeter;whiteSpace=wrap;html=1;align=center;" parent="1" vertex="1">
          <mxGeometry x="160" y="110" width="120" height="60" as="geometry" />
        </mxCell>
        <mxCell id="-_SdU4y-oUj2m8_1e3lg-44" value="Object" style="whiteSpace=wrap;html=1;align=center;" parent="1" vertex="1">
          <mxGeometry x="-310" y="120" width="100" height="40" as="geometry" />
        </mxCell>
        <mxCell id="-_SdU4y-oUj2m8_1e3lg-46" value="" style="edgeStyle=orthogonalEdgeStyle;rounded=0;orthogonalLoop=1;jettySize=auto;html=1;" parent="1" source="-_SdU4y-oUj2m8_1e3lg-45" target="-_SdU4y-oUj2m8_1e3lg-38" edge="1">
          <mxGeometry relative="1" as="geometry" />
        </mxCell>
        <mxCell id="-_SdU4y-oUj2m8_1e3lg-47" value="" style="edgeStyle=orthogonalEdgeStyle;rounded=0;orthogonalLoop=1;jettySize=auto;html=1;" parent="1" source="-_SdU4y-oUj2m8_1e3lg-45" target="-_SdU4y-oUj2m8_1e3lg-44" edge="1">
          <mxGeometry relative="1" as="geometry" />
        </mxCell>
        <mxCell id="-_SdU4y-oUj2m8_1e3lg-45" value="Have" style="shape=rhombus;perimeter=rhombusPerimeter;whiteSpace=wrap;html=1;align=center;" parent="1" vertex="1">
          <mxGeometry x="-160" y="110" width="120" height="60" as="geometry" />
        </mxCell>
        <mxCell id="JdU3-zYYGuw5FkNvxXy6-2" style="edgeStyle=orthogonalEdgeStyle;rounded=0;orthogonalLoop=1;jettySize=auto;html=1;entryX=0;entryY=0.75;entryDx=0;entryDy=0;exitX=0.5;exitY=1;exitDx=0;exitDy=0;" parent="1" source="JdU3-zYYGuw5FkNvxXy6-1" target="JdU3-zYYGuw5FkNvxXy6-35" edge="1">
          <mxGeometry relative="1" as="geometry">
            <mxPoint x="-70" y="749.9999999999998" as="targetPoint" />
          </mxGeometry>
        </mxCell>
        <mxCell id="JdU3-zYYGuw5FkNvxXy6-3" style="edgeStyle=orthogonalEdgeStyle;rounded=0;orthogonalLoop=1;jettySize=auto;html=1;entryX=0.25;entryY=0;entryDx=0;entryDy=0;exitX=0.5;exitY=0;exitDx=0;exitDy=0;" parent="1" source="JdU3-zYYGuw5FkNvxXy6-1" target="-_SdU4y-oUj2m8_1e3lg-4" edge="1">
          <mxGeometry relative="1" as="geometry" />
        </mxCell>
        <mxCell id="JdU3-zYYGuw5FkNvxXy6-1" value="Select" style="shape=rhombus;perimeter=rhombusPerimeter;whiteSpace=wrap;html=1;align=center;" parent="1" vertex="1">
          <mxGeometry x="-440" y="470" width="120" height="60" as="geometry" />
        </mxCell>
        <mxCell id="JdU3-zYYGuw5FkNvxXy6-5" style="edgeStyle=orthogonalEdgeStyle;rounded=0;orthogonalLoop=1;jettySize=auto;html=1;entryX=0.75;entryY=0;entryDx=0;entryDy=0;exitX=0;exitY=0.5;exitDx=0;exitDy=0;" parent="1" source="JdU3-zYYGuw5FkNvxXy6-4" target="-_SdU4y-oUj2m8_1e3lg-4" edge="1">
          <mxGeometry relative="1" as="geometry">
            <mxPoint x="360" y="190" as="sourcePoint" />
            <Array as="points">
              <mxPoint x="325" y="100" />
            </Array>
          </mxGeometry>
        </mxCell>
        <mxCell id="JdU3-zYYGuw5FkNvxXy6-7" value="" style="edgeStyle=orthogonalEdgeStyle;rounded=0;orthogonalLoop=1;jettySize=auto;html=1;" parent="1" source="JdU3-zYYGuw5FkNvxXy6-4" target="JdU3-zYYGuw5FkNvxXy6-6" edge="1">
          <mxGeometry relative="1" as="geometry" />
        </mxCell>
        <mxCell id="JdU3-zYYGuw5FkNvxXy6-4" value="Have" style="shape=rhombus;perimeter=rhombusPerimeter;whiteSpace=wrap;html=1;align=center;" parent="1" vertex="1">
          <mxGeometry x="400" y="70" width="120" height="60" as="geometry" />
        </mxCell>
        <mxCell id="JdU3-zYYGuw5FkNvxXy6-6" value="DailyReward" style="whiteSpace=wrap;html=1;align=center;" parent="1" vertex="1">
          <mxGeometry x="570" y="80" width="100" height="40" as="geometry" />
        </mxCell>
        <mxCell id="JdU3-zYYGuw5FkNvxXy6-8" value="N:M" style="text;strokeColor=none;fillColor=none;spacingLeft=4;spacingRight=4;overflow=hidden;rotatable=0;points=[[0,0.5],[1,0.5]];portConstraint=eastwest;fontSize=12;whiteSpace=wrap;html=1;align=center;" parent="1" vertex="1">
          <mxGeometry x="200" y="365" width="40" height="30" as="geometry" />
        </mxCell>
        <mxCell id="JdU3-zYYGuw5FkNvxXy6-9" value="N:M" style="text;strokeColor=none;fillColor=none;spacingLeft=4;spacingRight=4;overflow=hidden;rotatable=0;points=[[0,0.5],[1,0.5]];portConstraint=eastwest;fontSize=12;whiteSpace=wrap;html=1;align=center;" parent="1" vertex="1">
          <mxGeometry x="840" y="365" width="40" height="30" as="geometry" />
        </mxCell>
        <mxCell id="JdU3-zYYGuw5FkNvxXy6-10" value="N:M:P" style="text;strokeColor=none;fillColor=none;spacingLeft=4;spacingRight=4;overflow=hidden;rotatable=0;points=[[0,0.5],[1,0.5]];portConstraint=eastwest;fontSize=12;whiteSpace=wrap;html=1;align=center;" parent="1" vertex="1">
          <mxGeometry x="715" y="200" width="50" height="30" as="geometry" />
        </mxCell>
        <mxCell id="JdU3-zYYGuw5FkNvxXy6-11" value="1:1" style="text;strokeColor=none;fillColor=none;spacingLeft=4;spacingRight=4;overflow=hidden;rotatable=0;points=[[0,0.5],[1,0.5]];portConstraint=eastwest;fontSize=12;whiteSpace=wrap;html=1;align=center;" parent="1" vertex="1">
          <mxGeometry x="440" y="40" width="40" height="30" as="geometry" />
        </mxCell>
        <mxCell id="JdU3-zYYGuw5FkNvxXy6-12" value="1:N" style="text;strokeColor=none;fillColor=none;spacingLeft=4;spacingRight=4;overflow=hidden;rotatable=0;points=[[0,0.5],[1,0.5]];portConstraint=eastwest;fontSize=12;whiteSpace=wrap;html=1;align=center;" parent="1" vertex="1">
          <mxGeometry x="120" y="365" width="40" height="30" as="geometry" />
        </mxCell>
        <mxCell id="JdU3-zYYGuw5FkNvxXy6-13" value="N:M" style="text;strokeColor=none;fillColor=none;spacingLeft=4;spacingRight=4;overflow=hidden;rotatable=0;points=[[0,0.5],[1,0.5]];portConstraint=eastwest;fontSize=12;whiteSpace=wrap;html=1;align=center;" parent="1" vertex="1">
          <mxGeometry x="-120" y="170" width="40" height="30" as="geometry" />
        </mxCell>
        <mxCell id="JdU3-zYYGuw5FkNvxXy6-14" value="N:M" style="text;strokeColor=none;fillColor=none;spacingLeft=4;spacingRight=4;overflow=hidden;rotatable=0;points=[[0,0.5],[1,0.5]];portConstraint=eastwest;fontSize=12;whiteSpace=wrap;html=1;align=center;" parent="1" vertex="1">
          <mxGeometry x="-200" y="365" width="40" height="30" as="geometry" />
        </mxCell>
        <mxCell id="JdU3-zYYGuw5FkNvxXy6-15" value="1:1" style="text;strokeColor=none;fillColor=none;spacingLeft=4;spacingRight=4;overflow=hidden;rotatable=0;points=[[0,0.5],[1,0.5]];portConstraint=eastwest;fontSize=12;whiteSpace=wrap;html=1;align=center;" parent="1" vertex="1">
          <mxGeometry x="200" y="170" width="40" height="30" as="geometry" />
        </mxCell>
        <mxCell id="JdU3-zYYGuw5FkNvxXy6-16" value="1:N" style="text;strokeColor=none;fillColor=none;spacingLeft=4;spacingRight=4;overflow=hidden;rotatable=0;points=[[0,0.5],[1,0.5]];portConstraint=eastwest;fontSize=12;whiteSpace=wrap;html=1;align=center;" parent="1" vertex="1">
          <mxGeometry x="120" y="530" width="40" height="30" as="geometry" />
        </mxCell>
        <mxCell id="JdU3-zYYGuw5FkNvxXy6-17" value="1:N" style="text;strokeColor=none;fillColor=none;spacingLeft=4;spacingRight=4;overflow=hidden;rotatable=0;points=[[0,0.5],[1,0.5]];portConstraint=eastwest;fontSize=12;whiteSpace=wrap;html=1;align=center;" parent="1" vertex="1">
          <mxGeometry x="430" y="750" width="40" height="30" as="geometry" />
        </mxCell>
        <mxCell id="JdU3-zYYGuw5FkNvxXy6-18" value="N:M" style="text;strokeColor=none;fillColor=none;spacingLeft=4;spacingRight=4;overflow=hidden;rotatable=0;points=[[0,0.5],[1,0.5]];portConstraint=eastwest;fontSize=12;whiteSpace=wrap;html=1;align=center;" parent="1" vertex="1">
          <mxGeometry x="-320" y="485" width="40" height="30" as="geometry" />
        </mxCell>
        <mxCell id="JdU3-zYYGuw5FkNvxXy6-19" value="N:M" style="text;strokeColor=none;fillColor=none;spacingLeft=4;spacingRight=4;overflow=hidden;rotatable=0;points=[[0,0.5],[1,0.5]];portConstraint=eastwest;fontSize=12;whiteSpace=wrap;html=1;align=center;" parent="1" vertex="1">
          <mxGeometry x="-160" y="485" width="40" height="30" as="geometry" />
        </mxCell>
        <mxCell id="JdU3-zYYGuw5FkNvxXy6-22" style="edgeStyle=orthogonalEdgeStyle;rounded=0;orthogonalLoop=1;jettySize=auto;html=1;entryX=1;entryY=0.5;entryDx=0;entryDy=0;" parent="1" source="JdU3-zYYGuw5FkNvxXy6-21" target="-_SdU4y-oUj2m8_1e3lg-4" edge="1">
          <mxGeometry relative="1" as="geometry">
            <Array as="points">
              <mxPoint x="600" y="260" />
              <mxPoint x="600" y="260" />
            </Array>
          </mxGeometry>
        </mxCell>
        <mxCell id="JdU3-zYYGuw5FkNvxXy6-23" style="edgeStyle=orthogonalEdgeStyle;rounded=0;orthogonalLoop=1;jettySize=auto;html=1;entryX=0.5;entryY=1;entryDx=0;entryDy=0;exitX=1;exitY=0.5;exitDx=0;exitDy=0;" parent="1" source="JdU3-zYYGuw5FkNvxXy6-21" target="-_SdU4y-oUj2m8_1e3lg-1" edge="1">
          <mxGeometry relative="1" as="geometry" />
        </mxCell>
        <mxCell id="JdU3-zYYGuw5FkNvxXy6-24" style="edgeStyle=orthogonalEdgeStyle;rounded=0;orthogonalLoop=1;jettySize=auto;html=1;exitX=0.5;exitY=1;exitDx=0;exitDy=0;entryX=0.5;entryY=1;entryDx=0;entryDy=0;" parent="1" source="JdU3-zYYGuw5FkNvxXy6-21" target="-_SdU4y-oUj2m8_1e3lg-2" edge="1">
          <mxGeometry relative="1" as="geometry">
            <mxPoint x="520" y="610" as="targetPoint" />
            <Array as="points">
              <mxPoint x="740" y="800" />
              <mxPoint x="300" y="800" />
            </Array>
          </mxGeometry>
        </mxCell>
        <mxCell id="JdU3-zYYGuw5FkNvxXy6-21" value="Have" style="shape=rhombus;perimeter=rhombusPerimeter;whiteSpace=wrap;html=1;align=center;" parent="1" vertex="1">
          <mxGeometry x="680" y="230" width="120" height="60" as="geometry" />
        </mxCell>
        <mxCell id="JdU3-zYYGuw5FkNvxXy6-25" value="N:M" style="text;strokeColor=none;fillColor=none;spacingLeft=4;spacingRight=4;overflow=hidden;rotatable=0;points=[[0,0.5],[1,0.5]];portConstraint=eastwest;fontSize=12;whiteSpace=wrap;html=1;align=center;" parent="1" vertex="1">
          <mxGeometry x="440" y="200" width="40" height="30" as="geometry" />
        </mxCell>
        <mxCell id="JdU3-zYYGuw5FkNvxXy6-28" value="" style="edgeStyle=orthogonalEdgeStyle;rounded=0;orthogonalLoop=1;jettySize=auto;html=1;entryX=1;entryY=0.75;entryDx=0;entryDy=0;" parent="1" source="JdU3-zYYGuw5FkNvxXy6-27" target="-_SdU4y-oUj2m8_1e3lg-2" edge="1">
          <mxGeometry relative="1" as="geometry" />
        </mxCell>
        <mxCell id="JdU3-zYYGuw5FkNvxXy6-29" value="" style="edgeStyle=orthogonalEdgeStyle;rounded=0;orthogonalLoop=1;jettySize=auto;html=1;entryX=0.75;entryY=1;entryDx=0;entryDy=0;" parent="1" source="JdU3-zYYGuw5FkNvxXy6-27" target="JdU3-zYYGuw5FkNvxXy6-34" edge="1">
          <mxGeometry relative="1" as="geometry">
            <mxPoint x="460" y="520.0000000000002" as="targetPoint" />
          </mxGeometry>
        </mxCell>
        <mxCell id="JdU3-zYYGuw5FkNvxXy6-27" value="Have" style="shape=rhombus;perimeter=rhombusPerimeter;whiteSpace=wrap;html=1;align=center;" parent="1" vertex="1">
          <mxGeometry x="390" y="690" width="120" height="60" as="geometry" />
        </mxCell>
        <mxCell id="JdU3-zYYGuw5FkNvxXy6-30" value="1:N" style="text;strokeColor=none;fillColor=none;spacingLeft=4;spacingRight=4;overflow=hidden;rotatable=0;points=[[0,0.5],[1,0.5]];portConstraint=eastwest;fontSize=12;whiteSpace=wrap;html=1;align=center;" parent="1" vertex="1">
          <mxGeometry x="-210" y="605" width="40" height="30" as="geometry" />
        </mxCell>
        <mxCell id="JdU3-zYYGuw5FkNvxXy6-32" value="" style="edgeStyle=orthogonalEdgeStyle;rounded=0;orthogonalLoop=1;jettySize=auto;html=1;exitX=0.5;exitY=1;exitDx=0;exitDy=0;entryX=0.5;entryY=0;entryDx=0;entryDy=0;" parent="1" source="JdU3-zYYGuw5FkNvxXy6-31" target="JdU3-zYYGuw5FkNvxXy6-34" edge="1">
          <mxGeometry relative="1" as="geometry">
            <mxPoint x="690" y="430" as="targetPoint" />
            <Array as="points">
              <mxPoint x="660" y="430" />
              <mxPoint x="660" y="430" />
            </Array>
          </mxGeometry>
        </mxCell>
        <mxCell id="JdU3-zYYGuw5FkNvxXy6-33" style="edgeStyle=orthogonalEdgeStyle;rounded=0;orthogonalLoop=1;jettySize=auto;html=1;entryX=1;entryY=0.75;entryDx=0;entryDy=0;exitX=0.5;exitY=0;exitDx=0;exitDy=0;" parent="1" source="JdU3-zYYGuw5FkNvxXy6-31" target="-_SdU4y-oUj2m8_1e3lg-4" edge="1">
          <mxGeometry relative="1" as="geometry" />
        </mxCell>
        <mxCell id="JdU3-zYYGuw5FkNvxXy6-31" value="Join" style="shape=rhombus;perimeter=rhombusPerimeter;whiteSpace=wrap;html=1;align=center;" parent="1" vertex="1">
          <mxGeometry x="600" y="290" width="120" height="60" as="geometry" />
        </mxCell>
        <mxCell id="JdU3-zYYGuw5FkNvxXy6-34" value="Team" style="shape=ext;margin=3;double=1;whiteSpace=wrap;html=1;align=center;" parent="1" vertex="1">
          <mxGeometry x="610" y="480" width="100" height="40" as="geometry" />
        </mxCell>
        <mxCell id="JdU3-zYYGuw5FkNvxXy6-35" value="Option" style="shape=ext;margin=3;double=1;whiteSpace=wrap;html=1;align=center;" parent="1" vertex="1">
          <mxGeometry x="-160" y="720" width="100" height="40" as="geometry" />
        </mxCell>
        <mxCell id="JdU3-zYYGuw5FkNvxXy6-37" value="Challenge" style="shape=ext;margin=3;double=1;whiteSpace=wrap;html=1;align=center;" parent="1" vertex="1">
          <mxGeometry x="430" y="595" width="100" height="40" as="geometry" />
        </mxCell>
        <mxCell id="tWoFSsI08rOGLonRnMC8-3" value="" style="edgeStyle=orthogonalEdgeStyle;rounded=0;orthogonalLoop=1;jettySize=auto;html=1;exitX=0.5;exitY=1;exitDx=0;exitDy=0;" parent="1" source="tWoFSsI08rOGLonRnMC8-1" target="JdU3-zYYGuw5FkNvxXy6-37" edge="1">
          <mxGeometry relative="1" as="geometry" />
        </mxCell>
        <mxCell id="-3QLFGmWO1FFJI3fANjU-1" style="edgeStyle=orthogonalEdgeStyle;rounded=0;orthogonalLoop=1;jettySize=auto;html=1;entryX=1;entryY=0.25;entryDx=0;entryDy=0;" edge="1" parent="1" source="tWoFSsI08rOGLonRnMC8-1" target="-_SdU4y-oUj2m8_1e3lg-2">
          <mxGeometry relative="1" as="geometry" />
        </mxCell>
        <mxCell id="tWoFSsI08rOGLonRnMC8-1" value="Have" style="shape=rhombus;perimeter=rhombusPerimeter;whiteSpace=wrap;html=1;align=center;" parent="1" vertex="1">
          <mxGeometry x="420" y="515" width="120" height="60" as="geometry" />
        </mxCell>
        <mxCell id="tWoFSsI08rOGLonRnMC8-6" style="edgeStyle=orthogonalEdgeStyle;rounded=0;orthogonalLoop=1;jettySize=auto;html=1;entryX=0.5;entryY=1;entryDx=0;entryDy=0;exitX=0;exitY=0.5;exitDx=0;exitDy=0;" parent="1" source="tWoFSsI08rOGLonRnMC8-5" target="JdU3-zYYGuw5FkNvxXy6-37" edge="1">
          <mxGeometry relative="1" as="geometry" />
        </mxCell>
        <mxCell id="tWoFSsI08rOGLonRnMC8-7" style="edgeStyle=orthogonalEdgeStyle;rounded=0;orthogonalLoop=1;jettySize=auto;html=1;exitX=1;exitY=0.5;exitDx=0;exitDy=0;entryX=0.25;entryY=1;entryDx=0;entryDy=0;" parent="1" source="tWoFSsI08rOGLonRnMC8-5" target="JdU3-zYYGuw5FkNvxXy6-34" edge="1">
          <mxGeometry relative="1" as="geometry">
            <Array as="points">
              <mxPoint x="670" y="670" />
              <mxPoint x="670" y="560" />
              <mxPoint x="635" y="560" />
            </Array>
          </mxGeometry>
        </mxCell>
        <mxCell id="tWoFSsI08rOGLonRnMC8-5" value="Participates" style="shape=rhombus;perimeter=rhombusPerimeter;whiteSpace=wrap;html=1;align=center;" parent="1" vertex="1">
          <mxGeometry x="540" y="640" width="120" height="60" as="geometry" />
        </mxCell>
        <mxCell id="tWoFSsI08rOGLonRnMC8-8" value="N:M" style="text;strokeColor=none;fillColor=none;spacingLeft=4;spacingRight=4;overflow=hidden;rotatable=0;points=[[0,0.5],[1,0.5]];portConstraint=eastwest;fontSize=12;whiteSpace=wrap;html=1;align=center;" parent="1" vertex="1">
          <mxGeometry x="690" y="330" width="40" height="30" as="geometry" />
        </mxCell>
        <mxCell id="tWoFSsI08rOGLonRnMC8-9" value="1:N" style="text;strokeColor=none;fillColor=none;spacingLeft=4;spacingRight=4;overflow=hidden;rotatable=0;points=[[0,0.5],[1,0.5]];portConstraint=eastwest;fontSize=12;whiteSpace=wrap;html=1;align=center;" parent="1" vertex="1">
          <mxGeometry x="540" y="515" width="40" height="30" as="geometry" />
        </mxCell>
        <mxCell id="tWoFSsI08rOGLonRnMC8-10" value="N:M" style="text;strokeColor=none;fillColor=none;spacingLeft=4;spacingRight=4;overflow=hidden;rotatable=0;points=[[0,0.5],[1,0.5]];portConstraint=eastwest;fontSize=12;whiteSpace=wrap;html=1;align=center;" parent="1" vertex="1">
          <mxGeometry x="580" y="610" width="40" height="30" as="geometry" />
        </mxCell>
        <mxCell id="tWoFSsI08rOGLonRnMC8-12" style="edgeStyle=orthogonalEdgeStyle;rounded=0;orthogonalLoop=1;jettySize=auto;html=1;entryX=0.75;entryY=1;entryDx=0;entryDy=0;" parent="1" source="tWoFSsI08rOGLonRnMC8-11" target="-_SdU4y-oUj2m8_1e3lg-15" edge="1">
          <mxGeometry relative="1" as="geometry" />
        </mxCell>
        <mxCell id="tWoFSsI08rOGLonRnMC8-13" style="edgeStyle=orthogonalEdgeStyle;rounded=0;orthogonalLoop=1;jettySize=auto;html=1;" parent="1" source="tWoFSsI08rOGLonRnMC8-11" edge="1">
          <mxGeometry relative="1" as="geometry">
            <mxPoint x="710" y="500" as="targetPoint" />
            <Array as="points">
              <mxPoint x="70" y="830" />
              <mxPoint x="790" y="830" />
              <mxPoint x="790" y="500" />
            </Array>
          </mxGeometry>
        </mxCell>
        <mxCell id="tWoFSsI08rOGLonRnMC8-11" value="Participates" style="shape=rhombus;perimeter=rhombusPerimeter;whiteSpace=wrap;html=1;align=center;" parent="1" vertex="1">
          <mxGeometry x="10" y="590" width="120" height="60" as="geometry" />
        </mxCell>
        <mxCell id="tWoFSsI08rOGLonRnMC8-14" value="N:M" style="text;strokeColor=none;fillColor=none;spacingLeft=4;spacingRight=4;overflow=hidden;rotatable=0;points=[[0,0.5],[1,0.5]];portConstraint=eastwest;fontSize=12;whiteSpace=wrap;html=1;align=center;" parent="1" vertex="1">
          <mxGeometry x="130" y="605" width="40" height="30" as="geometry" />
        </mxCell>
        <mxCell id="-3QLFGmWO1FFJI3fANjU-2" value="Level" style="whiteSpace=wrap;html=1;align=center;" vertex="1" parent="1">
          <mxGeometry x="430" y="360" width="100" height="40" as="geometry" />
        </mxCell>
        <mxCell id="-3QLFGmWO1FFJI3fANjU-4" style="edgeStyle=orthogonalEdgeStyle;rounded=0;orthogonalLoop=1;jettySize=auto;html=1;entryX=0.75;entryY=0;entryDx=0;entryDy=0;exitX=0;exitY=0;exitDx=0;exitDy=0;" edge="1" parent="1" source="-3QLFGmWO1FFJI3fANjU-3" target="-_SdU4y-oUj2m8_1e3lg-2">
          <mxGeometry relative="1" as="geometry" />
        </mxCell>
        <mxCell id="-3QLFGmWO1FFJI3fANjU-5" style="edgeStyle=orthogonalEdgeStyle;rounded=0;orthogonalLoop=1;jettySize=auto;html=1;entryX=0.25;entryY=1;entryDx=0;entryDy=0;exitX=0.5;exitY=0;exitDx=0;exitDy=0;" edge="1" parent="1" source="-3QLFGmWO1FFJI3fANjU-3" target="-3QLFGmWO1FFJI3fANjU-2">
          <mxGeometry relative="1" as="geometry">
            <Array as="points">
              <mxPoint x="420" y="420" />
              <mxPoint x="455" y="420" />
            </Array>
          </mxGeometry>
        </mxCell>
        <mxCell id="-3QLFGmWO1FFJI3fANjU-3" value="Have" style="shape=rhombus;perimeter=rhombusPerimeter;whiteSpace=wrap;html=1;align=center;" vertex="1" parent="1">
          <mxGeometry x="360" y="440" width="120" height="60" as="geometry" />
        </mxCell>
        <mxCell id="-3QLFGmWO1FFJI3fANjU-7" style="edgeStyle=orthogonalEdgeStyle;rounded=0;orthogonalLoop=1;jettySize=auto;html=1;entryX=0.25;entryY=0;entryDx=0;entryDy=0;exitX=1;exitY=0;exitDx=0;exitDy=0;" edge="1" parent="1" source="-3QLFGmWO1FFJI3fANjU-6" target="JdU3-zYYGuw5FkNvxXy6-34">
          <mxGeometry relative="1" as="geometry" />
        </mxCell>
        <mxCell id="-3QLFGmWO1FFJI3fANjU-8" style="edgeStyle=orthogonalEdgeStyle;rounded=0;orthogonalLoop=1;jettySize=auto;html=1;entryX=0.75;entryY=1;entryDx=0;entryDy=0;exitX=0.5;exitY=0;exitDx=0;exitDy=0;" edge="1" parent="1" source="-3QLFGmWO1FFJI3fANjU-6" target="-3QLFGmWO1FFJI3fANjU-2">
          <mxGeometry relative="1" as="geometry">
            <Array as="points">
              <mxPoint x="540" y="420" />
              <mxPoint x="505" y="420" />
            </Array>
          </mxGeometry>
        </mxCell>
        <mxCell id="-3QLFGmWO1FFJI3fANjU-6" value="Have" style="shape=rhombus;perimeter=rhombusPerimeter;whiteSpace=wrap;html=1;align=center;" vertex="1" parent="1">
          <mxGeometry x="480" y="440" width="120" height="60" as="geometry" />
        </mxCell>
        <mxCell id="-3QLFGmWO1FFJI3fANjU-10" value="1:N" style="text;strokeColor=none;fillColor=none;spacingLeft=4;spacingRight=4;overflow=hidden;rotatable=0;points=[[0,0.5],[1,0.5]];portConstraint=eastwest;fontSize=12;whiteSpace=wrap;html=1;align=center;" vertex="1" parent="1">
          <mxGeometry x="480" y="485" width="40" height="30" as="geometry" />
        </mxCell>
        <mxCell id="-3QLFGmWO1FFJI3fANjU-11" value="1:N" style="text;strokeColor=none;fillColor=none;spacingLeft=4;spacingRight=4;overflow=hidden;rotatable=0;points=[[0,0.5],[1,0.5]];portConstraint=eastwest;fontSize=12;whiteSpace=wrap;html=1;align=center;" vertex="1" parent="1">
          <mxGeometry x="440" y="485" width="40" height="30" as="geometry" />
        </mxCell>
        <mxCell id="-3QLFGmWO1FFJI3fANjU-14" style="edgeStyle=orthogonalEdgeStyle;rounded=0;orthogonalLoop=1;jettySize=auto;html=1;entryX=0.5;entryY=0;entryDx=0;entryDy=0;" edge="1" parent="1" source="-3QLFGmWO1FFJI3fANjU-12" target="-3QLFGmWO1FFJI3fANjU-2">
          <mxGeometry relative="1" as="geometry" />
        </mxCell>
        <mxCell id="-3QLFGmWO1FFJI3fANjU-15" style="edgeStyle=orthogonalEdgeStyle;rounded=0;orthogonalLoop=1;jettySize=auto;html=1;entryX=0.75;entryY=1;entryDx=0;entryDy=0;" edge="1" parent="1" source="-3QLFGmWO1FFJI3fANjU-12" target="-_SdU4y-oUj2m8_1e3lg-4">
          <mxGeometry relative="1" as="geometry" />
        </mxCell>
        <mxCell id="-3QLFGmWO1FFJI3fANjU-12" value="Have" style="shape=rhombus;perimeter=rhombusPerimeter;whiteSpace=wrap;html=1;align=center;" vertex="1" parent="1">
          <mxGeometry x="420" y="280" width="120" height="60" as="geometry" />
        </mxCell>
        <mxCell id="-3QLFGmWO1FFJI3fANjU-16" value="1:N" style="text;strokeColor=none;fillColor=none;spacingLeft=4;spacingRight=4;overflow=hidden;rotatable=0;points=[[0,0.5],[1,0.5]];portConstraint=eastwest;fontSize=12;whiteSpace=wrap;html=1;align=center;" vertex="1" parent="1">
          <mxGeometry x="540" y="295" width="40" height="30" as="geometry" />
        </mxCell>
      </root>
    </mxGraphModel>
  </diagram>
</mxfile>
